<?xml version="1.0" encoding="UTF-8" standalone="no"?>
<!-- Generator: Adobe Illustrator 18.1.0, SVG Export Plug-In . SVG Version: 6.00 Build 0)  -->

<svg
   xmlns:dc="http://purl.org/dc/elements/1.1/"
   xmlns:cc="http://creativecommons.org/ns#"
   xmlns:rdf="http://www.w3.org/1999/02/22-rdf-syntax-ns#"
   xmlns:svg="http://www.w3.org/2000/svg"
   xmlns="http://www.w3.org/2000/svg"
   xmlns:sodipodi="http://sodipodi.sourceforge.net/DTD/sodipodi-0.dtd"
   xmlns:inkscape="http://www.inkscape.org/namespaces/inkscape"
   version="1.1"
   id="Layer_1"
   x="0px"
   y="0px"
   viewBox="0 0 16 16"
   enable-background="new 0 0 500 500"
   xml:space="preserve"
   inkscape:version="0.91 r13725"
   sodipodi:docname="attachment.svg"
   width="16"
   height="16"><metadata
     id="metadata9"><rdf:RDF><cc:Work
         rdf:about=""><dc:format>image/svg+xml</dc:format><dc:type
           rdf:resource="http://purl.org/dc/dcmitype/StillImage" /><dc:title></dc:title></cc:Work></rdf:RDF></metadata><defs
     id="defs7" /><sodipodi:namedview
     pagecolor="#ffffff"
     bordercolor="#666666"
     borderopacity="1"
     objecttolerance="10"
     gridtolerance="10"
     guidetolerance="10"
     inkscape:pageopacity="0"
     inkscape:pageshadow="2"
     inkscape:window-width="1839"
     inkscape:window-height="1050"
     id="namedview5"
     showgrid="false"
     inkscape:zoom="56.061688"
     inkscape:cx="8.0000087"
     inkscape:cy="8.0001159"
     inkscape:window-x="81"
     inkscape:window-y="30"
     inkscape:window-maximized="1"
     inkscape:current-layer="Layer_1"
     fit-margin-top="0"
     fit-margin-left="0"
     fit-margin-right="0"
     fit-margin-bottom="0" /><path
     d="m 9.8906244,0.96273053 -0.855802,0.78393997 -1.956118,1.79187 -5.616854,5.14521 C -0.42440662,10.41162 -0.49426762,13.15701 1.3046624,14.80489 c 1.79893,1.64787 4.795983,1.58388 6.682239,-0.14399 L 15.559873,7.7238205 14.826329,7.0518705 7.2533574,13.98575 c -1.481061,1.3567 -3.817923,1.42389 -5.21515,0.14399 C 0.64447238,12.85303 0.71433438,10.7124 2.1953954,9.3525005 l 5.595895,-5.12922 0.0035,0.003 c 0.007,-0.006 0.01397,-0.016 0.02096,-0.0224 l 1.956118,-1.79187 0.8558016,-0.78394 c 0.992031,-0.90872997 2.602336,-0.90872997 3.590874,0 0.992031,0.90873 0.992031,2.38382 0,3.28935 l -1.173671,1.07832 -1.638249,1.50069 c -0.007,0.006 -0.01747,0.0128 -0.02445,0.0192 l 0.0035,0 -4.0205216,3.6893195 c -0.52396,0.47996 -1.376269,0.47996 -1.900229,0 -0.52396,-0.47997 -0.52396,-1.2607095 0,-1.7406695 l 5.1906996,-4.75164 -0.7335446,-0.67195 -5.194192,4.75484 c -0.929156,0.85114 -0.929156,2.2366295 0,3.0877695 0.929156,0.85113 2.441655,0.85113 3.370811,0 l 4.0449726,-3.7053195 1.638249,-1.50069 1.170177,-1.07832 c 1.397228,-1.2799 1.397228,-3.35975 0,-4.63964997 -1.397227,-1.2831 -3.664228,-1.2767 -5.0614546,0.003 z"
     id="path3"
     inkscape:connector-curvature="0"
     style="fill:#999999;fill-opacity:1"
     inkscape:export-xdpi="2.8797832"
     inkscape:export-ydpi="2.8797832" /></svg>