<?xml version="1.0" encoding="utf-8"?>
<!-- Generator: Adobe Illustrator 14.0.0, SVG Export Plug-In . SVG Version: 6.00 Build 43363)  -->
<!DOCTYPE svg PUBLIC "-//W3C//DTD SVG 1.1//EN" "http://www.w3.org/Graphics/SVG/1.1/DTD/svg11.dtd">
<svg version="1.1"
	 id="svg1288" xmlns:sodipodi="http://inkscape.sourceforge.net/DTD/sodipodi-0.dtd" xmlns:inkscape="http://www.inkscape.org/namespaces/inkscape" xmlns:dc="http://purl.org/dc/elements/1.1/" xmlns:rdf="http://www.w3.org/1999/02/22-rdf-syntax-ns#" xmlns:cc="http://web.resource.org/cc/" xmlns:svg="http://www.w3.org/2000/svg" sodipodi:docname="office-calendar.svg" sodipodi:docbase="/home/jimmac/gfx/ximian/tango-desktop-theme/scalable/apps" sodipodi:version="0.32" inkscape:version="0.41+cvs"
	 xmlns="http://www.w3.org/2000/svg" xmlns:xlink="http://www.w3.org/1999/xlink" x="0px" y="0px" width="48px" height="48px"
	 viewBox="0 0 48 48" enable-background="new 0 0 48 48" xml:space="preserve">
<sodipodi:namedview  id="base" pagecolor="#ffffff" bordercolor="#666666" showgrid="false" borderopacity="1.0" inkscape:cy="24.165113" inkscape:cx="25.369574" inkscape:zoom="9.8994949" inkscape:pageopacity="0.0" inkscape:pageshadow="2" inkscape:current-layer="layer1" inkscape:grid-bbox="true" inkscape:document-units="px" inkscape:window-width="716" inkscape:window-height="701" inkscape:window-x="713" inkscape:window-y="393">
	</sodipodi:namedview>
<g id="layer1" inkscape:label="Layer 1" inkscape:groupmode="layer">
	
		<radialGradient id="path2549_1_" cx="-7.4036" cy="-386.1016" r="18.4285" gradientTransform="matrix(1.092 0 0 -0.4031 32.9279 -119.3521)" gradientUnits="userSpaceOnUse">
		<stop  offset="0" style="stop-color:#000000"/>
		<stop  offset="1" style="stop-color:#000000;stop-opacity:0"/>
	</radialGradient>
	
		<path id="path2549" sodipodi:type="arc" sodipodi:cy="29.000000" sodipodi:rx="18.428572" sodipodi:cx="26.000000" sodipodi:ry="13.857142" fill="url(#path2549_1_)" d="
		M44.967,36.285c0,4.104-9.01,7.43-20.124,7.43s-20.124-3.326-20.124-7.43c0-4.102,9.01-7.428,20.124-7.428
		S44.967,32.184,44.967,36.285z"/>
	<path id="path1316" sodipodi:nodetypes="ccccccc" fill="#A7A7A7" stroke="#656565" d="M4.857,38.429c-0.214,1,0.607,2.036,1.964,2
		H43c1.286-0.036,1.715-1.214,1.429-2.179L36.571,9.429h-26L4.857,38.429z"/>
	
		<path id="path2575" sodipodi:nodetypes="ccccccccc" opacity="0.1086" stroke="#000000" stroke-width="1" enable-background="new    " d="
		M9.163,30.807h30.232c0.857,0,1.547,0.672,1.547,1.508l1.327,4.801c0,0.834-0.689,1.507-1.547,1.507H8.278
		c-0.857,0-1.548-0.673-1.548-1.507l0.885-4.801C7.615,31.479,8.305,30.807,9.163,30.807z"/>
	<path id="path2520" sodipodi:nodetypes="ccccccc" fill="none" stroke="#FFFFFF" stroke-width="1" stroke-opacity="0.3446" d="
		M6.048,37.806c-0.199,0.933-0.398,1.579,0.476,1.579h36.314c0.916,0,0.741-0.739,0.475-1.639L35.77,10.472H11.52L6.048,37.806z"/>
	<path id="path2518" sodipodi:nodetypes="ccccccccc" fill="#C5C5C5" stroke="#696969" stroke-width="1" d="M9.641,29.929h29.288
		c0.831,0,1.499,0.651,1.499,1.46l1.286,4.65c0,0.81-0.669,1.461-1.499,1.461H8.785c-0.831,0-1.499-0.651-1.499-1.461l0.857-4.65
		C8.143,30.58,8.811,29.929,9.641,29.929z"/>
	
		<linearGradient id="rect2225_1_" gradientUnits="userSpaceOnUse" x1="6.8308" y1="17.2529" x2="42.2594" y2="17.2529" gradientTransform="matrix(1 0 0 -1 -0.0449 48.8242)">
		<stop  offset="0" style="stop-color:#E2E2E2"/>
		<stop  offset="1" style="stop-color:#9F9F9F"/>
	</linearGradient>
	<path id="rect2225" sodipodi:nodetypes="ccccccccc" fill="url(#rect2225_1_)" stroke="#696969" stroke-width="1" d="M9.641,27.785
		h29.288c0.831,0,1.499,0.652,1.499,1.461l1.286,4.65c0,0.81-0.669,1.461-1.499,1.461H8.785c-0.831,0-1.499-0.651-1.499-1.461
		l0.857-4.65C8.143,28.438,8.811,27.785,9.641,27.785z"/>
	<g id="g2578" transform="matrix(0.942549,0.000000,0.000000,0.942549,-0.222619,1.855860)">
		
			<linearGradient id="path2524_1_" gradientUnits="userSpaceOnUse" x1="39.1824" y1="14.0484" x2="68.0396" y2="0.0484" gradientTransform="matrix(0.9425 0 0 -0.9425 -24.4652 30.2922)">
			<stop  offset="0" style="stop-color:#E7EBEB"/>
			<stop  offset="0.5" style="stop-color:#E6EBEB"/>
			<stop  offset="1" style="stop-color:#FFFFFF"/>
		</linearGradient>
		<path id="path2524" sodipodi:nodetypes="cczczcc" fill="url(#path2524_1_)" stroke="#696969" stroke-width="1.061" d="
			M10.892,11.5l-4.32,21.714h26.286c12.585,0,15.228-4,15.228-4s-3.357-1.178-4.786-6.143L40.238,11.5H10.892z"/>
		<path id="path2571" sodipodi:nodetypes="cccczcc" fill="none" stroke="#FFFFFF" stroke-width="1.061" d="M11.804,12.475
			L7.812,32.24c0,0,17.145,0,24.427,0c11.226,0,14.11-2.85,14.11-2.85s-2.993-1.863-4.294-6.382l-2.738-10.461L11.804,12.475z"/>
	</g>
	<path id="rect2522" sodipodi:nodetypes="ccccccccc" fill="#D42518" stroke="#696969" stroke-width="1" d="M11.316,7.429h25.179
		c0.873,0,1.575,0.668,1.575,1.5l0.357,2.144c0,0.831-0.703,1.5-1.576,1.5H10.959c-0.873,0-1.576-0.668-1.576-1.5L9.74,8.928
		C9.74,8.097,10.442,7.429,11.316,7.429z"/>
	<path id="text2541" d="M20.97,22.393c0.988,0.094,1.722,0.373,2.201,0.836c0.48,0.458,0.679,1.044,0.594,1.757
		c-0.123,1.047-0.688,1.891-1.694,2.531c-1.007,0.641-2.308,0.961-3.904,0.961c-1.226,0-2.26-0.192-3.101-0.578l0.24-2.031
		c0.884,0.609,1.889,0.914,3.014,0.914c0.898,0,1.607-0.146,2.126-0.438c0.52-0.297,0.811-0.713,0.874-1.25
		c0.066-0.563-0.143-0.974-0.627-1.234c-0.485-0.26-1.293-0.391-2.425-0.391h-1.272l0.207-1.75h1.357
		c0.893,0,1.591-0.135,2.094-0.406c0.505-0.276,0.786-0.667,0.846-1.172c0.057-0.474-0.09-0.854-0.439-1.141s-0.905-0.43-1.666-0.43
		c-0.962,0-1.903,0.281-2.824,0.844l0.229-1.945c1.032-0.438,2.19-0.656,3.473-0.656c1.238,0,2.188,0.258,2.851,0.773
		c0.668,0.516,0.954,1.174,0.859,1.977c-0.088,0.745-0.383,1.354-0.886,1.828C22.595,21.862,21.886,22.195,20.97,22.393"/>
	<path id="text2545" d="M33.008,28.455h-2.509l-1.111-9.359l-3.092,0.797l-0.209-1.758l5.541-1.297L33.008,28.455"/>
	
		<path id="path2559" sodipodi:type="arc" sodipodi:cy="9.9285717" sodipodi:rx="1.3571428" sodipodi:cx="11.500000" sodipodi:ry="1.3571428" fill="#FFFFFF" enable-background="new    " d="
		M12.357,9.071c0,0.513-0.416,0.929-0.929,0.929S10.5,9.584,10.5,9.071c0-0.513,0.416-0.928,0.929-0.928S12.357,8.559,12.357,9.071z
		"/>
	
		<path id="path2561" sodipodi:nodetypes="cc" opacity="0.3029" fill="none" stroke="#FFFFFF" stroke-width="1" stroke-linecap="round" enable-background="new    " d="
		M13.042,8.601h23.329"/>
</g>
</svg>
