<svg width="24" height="24" viewBox="0 0 24 24" fill="none" xmlns="http://www.w3.org/2000/svg" preserveAspectRatio="xMinYMid meet"><defs><style>.cls-1{fill:#000;stroke-width:0}</style></defs><path class="cls-1" d="M3.7 20.9c-.5 0-.9-.2-1.2-.6-.2-.3-.4-.8-.3-1.2L4.8 5.9l1.4.2-2.6 13.3h16.8L16.9 6l1.3-.3 3.6 13.2c.2.5 0 1-.2 1.3-.2.3-.7.6-1.1.6H3.7z" id="path1316"/><path class="cls-1" d="M19.6 18.4H4.2c-.8 0-1.5-.7-1.5-1.4H21c0 .8-.6 1.4-1.4 1.4z" id="path2518"/><path class="cls-1" d="M19.1 16.1H4.6c-.7 0-1.4-.7-1.4-1.4h17.3c0 .8-.6 1.4-1.4 1.4z" id="rect2225"/><path class="cls-1" d="M17.2 6.9H5.7c-.8 0-1.4-.7-1.4-1.4l.2-1.1c0-.7.7-1.3 1.4-1.3h11.2c.7 0 1.4.6 1.4 1.3l.2 1.1c0 .7-.7 1.4-1.4 1.4zM5.7 5.5h11.5L17 4.4H5.8v.2l-.2.9z" id="rect2522"/><path id="text2541" class="cls-1" d="M10 10.7c.5 0 .8.2 1.1.4s.3.5.2.8c0 .5-.3.9-.8 1.2-.5.3-1.1.5-1.9.5s-1.1 0-1.5-.2v-1c.6.2 1.1.4 1.6.4s.7 0 1-.2.4-.3.4-.6 0-.5-.3-.6c-.2-.2-.7-.2-1.1-.2h-.5v-.8h.7c.4 0 .7 0 1-.2.2-.2.4-.3.4-.6s0-.4-.2-.6-.4-.2-.8-.2-.8 0-1.3.3v-.9c.6-.2 1.1-.3 1.7-.3s1.1 0 1.4.3.5.6.4.9-.2.7-.4.9-.6.4-1 .5"/><path id="text2545" class="cls-1" d="M15.7 13.6h-1.2L14 9.2l-1.5.3v-.8L15 8l.7 5.5"/></svg>
